# ProBuilder 5.2.2
# https://unity3d.com/unity/features/worldbuilding/probuilder
# 1/9/2025 12:00:20 AM

mtllib ./Lab.mtl
o Lab

g Lab
v 2.346971 0 -0.03207684
v 2.346971 0 -13.40328
v 2.346971 4.782819 -0.03207684
v 2.346971 4.782819 -13.40328
v 2.346971 0 -13.90328
v 2.838186 0 -13.90328
v 2.346971 4.782819 -13.90328
v 2.838186 4.782819 -13.90328
v 2.838186 0 -13.40328
v 2.838186 0 -0.03207684
v 2.838186 4.782819 -13.40328
v 2.838186 4.782819 -0.03207684
v 2.346971 -0.0999999 -13.40328
v 2.838186 -0.0999999 -13.40328
v 2.346971 -0.0999999 -13.90328
v 2.838186 -0.0999999 -13.90328
v 17.00914 -0.0003128052 -13.40518
v 17.00734 4.782505 -13.40108
v 16.89709 0.000215292 -13.90533
v 16.89529 4.783032 -13.90123
v 2.838186 5.724093 -13.40328
v 2.346971 5.282819 -13.40328
v 2.838186 5.282819 -13.90328
v 2.346971 5.282819 -13.90328
v 16.39634 0 -13.40328
v 16.39634 4.782819 -13.40328
v 16.39634 -0.0999999 -13.90328
v 16.39634 -0.0999999 -13.40328
v 16.39634 4.782819 -13.90328
v 16.39634 0 -13.90328
v 16.89634 -0.0999999 -13.90328
v 16.89634 -0.0999999 -13.40328
v 16.39634 5.736291 -13.40328
v 16.39634 5.282819 -13.90328
v 16.89634 5.282819 -13.40328
v 16.89634 5.282819 -13.90328
v 16.89634 4.782819 -13.90328
v 16.89634 0 -13.90328
v 16.39634 0 -0.02303982
v 16.39634 4.782819 -0.02303982
v 16.89634 0 -13.40328
v 16.89634 0 -0.02303982
v 16.89634 4.782819 -13.40328
v 16.89634 4.782819 -0.02303982
v 17.0153 4.771033 -0.02083874
v 17.0171 -0.01178432 -0.02493954
v 2.838186 0 0.4679232
v 2.346971 0 0.4679232
v 2.346971 4.782819 0.4679232
v 2.838186 4.782819 0.4679232
v 7.973956 4.782819 -0.03207684
v 7.973956 0 -0.03207684
v 16.89634 0 0.4769602
v 16.39634 0 0.4769602
v 16.39634 4.782819 0.4769602
v 16.89634 4.782819 0.4769602
v 16.90385 4.770703 0.479003
v 16.90565 -0.01211357 0.4749012
v 11.96586 0 -0.02303982
v 11.97097 4.787548 0.01189041
v 16.89634 4.782819 0.4843378
v 16.59634 4.782819 0.4843378
v 16.89634 5.282819 0.4843378
v 16.54449 5.601931 0.4843378
v 2.638186 4.782819 0.4843378
v 2.346971 4.782819 0.4843378
v 2.689404 5.590438 0.4843378
v 2.346971 5.282819 0.4843378
v 16.39634 4.782819 0.284338
v 2.838187 4.782819 0.284338
v 16.8954 5.282604 -13.4008
v 16.90367 5.270697 0.4868097
v 16.90385 4.770698 0.4863806
v 9.751713 7.294265 -13.40328
v 16.20275 4.982717 0.4843378
v 3.038187 4.982818 0.4843378
v 3.011917 5.636258 0.4843378
v 9.752073 7.108051 0.4843378
v 16.2241 5.648191 0.4843378
v 9.751714 7.294265 -6.459473
v 2.838186 5.724093 -6.459473
v 16.39634 5.736291 -6.459473
v 16.39634 5.736291 0.284338
v 9.751714 7.294265 0.284338
v 2.838187 5.724093 0.284338
v 2.838187 0 1.849602
v 16.39634 0 1.849602
v 2.838187 -0.0999999 1.849602
v 16.39634 -0.0999999 1.849602
v 2.346971 0 1.849602
v 2.346971 -0.0999999 1.849602
v 16.89634 0 1.849602
v 16.89634 -0.0999999 1.849602
v 2.838186 2.39141 0.4679232
v 2.838186 1.195705 0.4679232
v 2.838186 3.587114 0.4679232
v 8.180735 2.426388 0.4572735
v 7.87533 3.677555 0.4481306
v 7.973956 4.782819 0.4679232
v 7.973956 0 0.4679232
v 7.921845 1.196448 0.4574652
v 6.690013 4.782819 0.4679232
v 5.406071 4.782819 0.4679232
v 4.122128 4.782819 0.4679232
v 5.406071 0 0.4679232
v 6.690013 0 0.4679232
v 4.122128 0 0.4679232
v 4.122128 1.195705 0.4679232
v 5.406071 1.195705 0.4679232
v 4.122128 2.39141 0.4679232
v 5.406071 2.39141 0.706809
v 4.122128 3.587114 0.4679232
v 5.406667 3.584626 0.6271324
v 6.690013 2.39141 0.4679232
v 6.694264 3.569374 0.7760553
v 6.690013 1.195705 0.4679232
v 16.39634 1.195705 0.4769602
v 16.39634 2.39141 0.4769602
v 16.39634 3.587114 0.4769602
v 11.64905 2.129354 0.4134741
v 11.96586 1.195705 0.4769602
v 11.96586 0 0.4769602
v 11.97297 4.789399 0.5255623
v 11.43433 3.227411 0.987114
v 14.1811 0 0.4769602
v 15.28872 0 0.4769602
v 13.07348 0 0.4769602
v 15.28872 4.782819 0.4769602
v 14.1811 4.782819 0.7127466
v 13.07348 4.782819 0.4769602
v 15.28872 2.39141 0.576767
v 15.28872 3.587114 0.4769602
v 14.1811 2.39141 0.7260952
v 14.1811 3.587114 0.4769602
v 15.28872 1.195705 0.4769602
v 14.1811 1.195705 0.6654472
v 13.07348 1.195705 0.4769602
v 13.00501 2.319963 0.6939192
v 13.07348 3.587114 0.4769602

vt -1.124743 -13.68474
vt -14.49595 -13.68474
vt -1.124743 -8.901923
vt -14.49595 -8.901923
vt 0.5030289 -2.39141
vt 0.01181388 -2.39141
vt 0.5030289 2.39141
vt 0.01181388 2.39141
vt 5.13945 -0.9090292
vt -8.231756 -0.9090292
vt 5.13945 3.87379
vt -8.231756 3.87379
vt 0.01181388 8.877923
vt 0.5030289 8.877923
vt 0.01181388 -4.493283
vt 0.5030289 -4.493283
vt -0.01181388 -4.493283
vt -0.5030289 -4.493283
vt -0.01181388 8.877923
vt -0.5030289 8.877923
vt -0.5030289 -4.993283
vt -0.01181388 -4.993283
vt -4.493283 2.39141
vt -4.493283 -2.39141
vt -4.993283 2.39141
vt -4.993283 -2.39141
vt 1.29132 -2.399928
vt 1.28771 2.38289
vt 1.803872 -2.3994
vt 1.800262 2.383418
vt -2.218374 -2.391116
vt -1.55806 -2.391116
vt -1.92348 -2.989247
vt -1.55806 -2.809085
vt -0.6959889 0.1552439
vt -0.6959889 4.938063
vt 12.86217 0.1552439
vt 12.86217 4.938063
vt 13.54634 -4.993283
vt 13.54634 -4.493283
vt -13.54634 2.39141
vt -13.54634 -2.39141
vt 14.04634 -4.993283
vt 14.04634 -4.493283
vt -7.787117 2.726719
vt -8.09176 2.124366
vt -8.462126 2.726719
vt -8.462126 2.31168
vt -14.04634 2.39141
vt -14.04634 -2.39141
vt 8.88696 -2.39141
vt 8.88696 2.39141
vt 14.04634 8.88696
vt 13.54634 8.88696
vt -13.54634 -4.493283
vt -14.04634 -4.493283
vt -13.54634 8.88696
vt -14.04634 8.88696
vt 4.482657 2.385763
vt 4.486759 -2.397055
vt -8.897581 2.374291
vt -8.893481 -2.408527
vt -0.01181388 9.377923
vt -0.5030289 9.377923
vt 8.877923 -2.39141
vt 8.877923 2.39141
vt 9.377923 -2.39141
vt 9.377923 2.39141
vt 0.5030289 9.377923
vt 0.01181388 9.377923
vt -5.123956 2.39141
vt -5.123956 -2.39141
vt 14.04634 9.38696
vt 13.54634 9.38696
vt -13.54634 9.38696
vt -14.04634 9.38696
vt -5.593441 2.37678
vt -5.589048 -2.406038
vt -6.105557 2.37645
vt -6.101162 -2.406368
vt -9.115862 -2.39141
vt -9.120967 2.396138
vt -4.493283 2.89141
vt -4.993283 2.89141
vt 0.01181388 2.89141
vt -13.54634 2.89141
vt 14.04634 2.39141
vt 13.74634 2.39141
vt 14.04634 2.89141
vt 13.69449 3.210521
vt -0.2118134 2.39141
vt -0.5030291 2.39141
vt -0.1605957 3.199028
vt -0.5030291 2.89141
vt 0.5030289 2.89141
vt -14.04634 2.89141
vt 4.993283 2.39141
vt 4.493283 2.39141
vt 4.993283 2.89141
vt 4.493283 2.89141
vt 13.54634 9.194338
vt -0.01181341 9.194338
vt 9.394338 2.39141
vt 9.394338 2.89141
vt 4.485144 -0.2467429
vt 4.485371 -0.7592148
vt -9.402472 -0.2589441
vt -9.402042 -0.7469124
vt 0.01105412 2.334039
vt 0.01096957 1.799108
vt -13.54719 1.799581
vt -13.5471 2.346447
vt -6.902472 3.870676
vt 13.35275 2.591307
vt 0.1881866 2.591408
vt 0.1619171 3.244848
vt 6.767625 7.691537
vt 13.3741 3.256782
vt 0.02345032 -4.493283
vt -6.884552 -4.493283
vt -6.884552 2.450527
vt 0.02345009 2.450527
vt -13.53458 -4.493283
vt -13.53458 2.450527
vt -13.54841 2.450527
vt -13.54841 9.194338
vt -6.772155 9.194338
vt -6.772155 2.450527
vt 0.009753942 9.194338
vt 0.009754174 2.450527
vt 0.01181388 -2.49141
vt 0.5030289 -2.49141
vt -13.54634 -2.49141
vt -0.0118134 -2.39141
vt 13.54634 -2.39141
vt -0.0118134 -2.49141
vt 13.54634 -2.49141
vt -14.04634 -2.49141
vt -0.5030291 -2.39141
vt -0.5030291 -2.49141
vt -4.993283 -2.49141
vt -4.493283 -2.49141
vt 14.04634 -2.39141
vt 14.04634 -2.49141
vt 4.493283 -2.39141
vt 4.993283 -2.39141
vt 4.493283 -2.49141
vt 4.993283 -2.49141
vt 36.68826 -4.600839
vt 23.1301 -4.600839
vt 36.68826 10.65205
vt 23.1301 10.65205
vt -0.0118134 10.7596
vt -0.5030291 10.7596
vt -10.7596 -2.39141
vt -10.7596 -2.49141
vt 13.54634 10.7596
vt -13.54634 10.7596
vt -14.04634 10.7596
vt 14.04634 10.7596
vt 0.5030291 10.7596
vt 0.0118134 10.7596
vt 10.7596 -2.49141
vt 10.7596 -2.39141
vt 12.84038 -4.993283
vt 12.84038 -4.493283
vt 12.84116 -4.995334
vt 12.9487 -4.495178
vt -13.74211 8.88696
vt -13.74211 -4.493283
vt -13.86165 8.889161
vt -13.85259 -4.491076
vt 14.05292 -4.493283
vt 14.05292 8.88696
vt 14.16571 -4.495178
vt 14.17371 8.88506
vt -9.38696 -5.364015
vt -8.88696 -5.364015
vt -9.389003 -5.378267
vt -8.889161 -5.436676
vt -14.03952 -4.493283
vt -14.03952 -4.993283
vt -14.15051 -4.491076
vt -14.03847 -4.991232
vt 10.8411 2.39141
vt 10.8411 -2.39141
vt 10.8388 2.391623
vt 10.84327 -2.391194
vt 14.21221 8.88696
vt 14.21221 9.38696
vt 14.33353 8.88506
vt 14.22264 9.384901
vt 11.68627 -2.39141
vt 11.68627 2.39141
vt 11.6958 -2.403523
vt 11.69316 2.379294
vt 9.174236 2.89141
vt 9.174236 2.39141
vt 9.171585 2.891194
vt 9.211458 2.391095
vt -9.394338 -4.787565
vt 4.493283 -4.787565
vt -9.39681 -4.801727
vt 4.490804 -4.787264
vt 14.03952 -4.493283
vt 14.03952 9.394338
vt 14.15051 -4.491076
vt 14.04706 9.39638
vt 16.01975 2.39141
vt 16.01975 2.89141
vt 16.02754 2.379288
vt 16.02747 2.879287
vt -0.01181388 0
vt -0.01181388 -1.195705
vt -0.01181388 2.39141
vt -0.01181388 1.195705
vt -9.497498 0.02350098
vt -9.480729 1.275352
vt -9.502979 2.380392
vt -9.003135 2.380364
vt -9.003135 -2.402443
vt -9.502979 -2.402415
vt -9.491223 -1.205853
vt -5.123956 8.877923
vt -5.123956 9.377923
vt -3.840013 9.377923
vt -2.556071 9.377923
vt -1.272128 9.377923
vt 2.556071 9.377923
vt 3.840013 9.377923
vt 5.123956 9.377923
vt 5.123956 8.877923
vt 1.272128 9.377923
vt 1.351938 -1.743251
vt 0.06799686 -1.743252
vt 0.06799686 -0.5475479
vt 1.351938 -0.5475462
vt -1.215944 -1.743254
vt -1.215944 -0.5475494
vt -1.215944 0.6481549
vt 0.06799686 0.6481566
vt 1.351563 0.6483544
vt 0.06799686 1.843861
vt 1.352284 1.841505
vt -1.215944 1.843859
vt -1.215944 3.039564
vt 0.06799686 3.039565
vt 1.351938 3.039567
vt 4.126615 0.6831317
vt 2.635879 0.6481599
vt 2.639647 1.826376
vt 3.821225 1.93429
vt 2.635879 3.039569
vt 3.919819 3.03957
vt 3.919819 -1.743247
vt 2.635879 -1.743249
vt 2.635879 -0.5475445
vt 3.867725 -0.5468082
vt 13.54634 -1.195705
vt 13.54634 0
vt 13.54634 1.195705
vt 13.54634 2.39141
vt 5.030528 -0.3238795
vt 4.962124 -1.259171
vt 4.962124 -2.45486
vt 4.503781 -2.453812
vt 4.533762 2.333572
vt 5.003839 2.334337
vt 5.642179 0.7739924
vt 11.3311 9.38696
vt 12.43872 9.38696
vt 9.115862 8.88696
vt 9.115862 9.38696
vt 10.22348 9.38696
vt -9.120193 9.430312
vt -9.118197 8.916646
vt -13.54358 8.881715
vt -13.54358 9.381714
vt -12.43596 9.381717
vt -11.32834 9.617505
vt -10.22072 9.381722
vt 10.95392 1.867271
vt 9.844466 1.869423
vt 9.846538 3.061862
vt 10.95392 3.062506
vt 8.733984 1.872962
vt 8.739157 3.061218
vt 8.734262 4.263059
vt 9.846538 4.257097
vt 10.95392 4.257742
vt 10.95392 -0.5231996
vt 9.846538 -0.523844
vt 9.846538 0.6713914
vt 10.95392 0.6720358
vt 8.739157 -0.5244882
vt 8.735243 0.6760276
vt 7.631775 -0.5251327
vt 7.631775 0.6701026
vt 6.524393 -0.5257771
vt 6.524393 0.6694582
vt 6.208968 1.600778
vt 7.558812 1.799957
vt 7.631775 3.060573
vt 5.982385 2.714349
vt 6.530486 4.263106
vt 7.631775 4.255809
vt -5.695083 2.842008
vt -12.32971 2.842008
vt -5.653758 2.571882
vt -12.47835 2.610687
vt -0.01181341 8.192374
vt 13.54634 8.192374
vt 0.1881866 8.475216
vt 13.35275 8.475144
vt -0.8504294 6.362919
vt -7.749406 6.362919
vt -0.6994367 6.128188
vt -7.788781 6.097237
vt 13.74634 9.394338
vt 14.04634 9.394338
vt -7.787117 -4.493283
vt -8.462126 -4.493283
vt -8.462126 9.394338
vt -7.987116 9.394338
vt -7.787117 9.194338
vt -7.787117 2.450527
vt -0.5030291 9.394338
vt -0.2118134 9.394338
vt -2.218373 -4.493283
vt -2.218373 2.450527
vt -2.218373 9.194338
vt -2.018373 9.394338
vt -1.558058 9.394338
vt -1.558059 -4.493283
vt 11.17332 12.00509
vt 10.73187 12.00509
vt 10.995 11.78554
vt -13.09513 5.694393
vt -12.77141 5.694393
vt -12.9293 5.465261
vt 1.058899 9.268624
vt 1.327226 9.487713
vt 0.8800131 9.487713
vt -0.2909744 6.654922
vt -0.6167257 6.654922
vt -0.4570774 6.42599

vn -1 0 0
vn 0 0 -1
vn 1 0 0
vn 0 1 0
vn 0 -1 0
vn 0.9758151 0.0005544784 -0.2185969
vn -0.5586396 0.6218631 -0.5488243
vn -0.2793198 0.8109316 -0.2744121
vn 0 0 1
vn 0.557647 0.6148654 -0.557647
vn 0.2788235 0.8074327 -0.2788235
vn 0.9999998 0.0003765706 -0.0005945369
vn 0.9760332 0.0001804584 0.2176216
vn -0.003942453 0.003652023 -0.9999712
vn -0.007884906 0.007304045 -0.9999422
vn 0.9758558 0.2184157 -0.0003932054
vn 0.987914 0.1093916 0.003529264
vn 0.9999722 0.0003674344 0.007451733
vn -0.1678671 0.7391257 -0.6523142
vn -0.08393357 0.4901809 -0.8113903
vn 0.08555921 0.4855211 -0.8161794
vn 0.1711184 0.7298061 -0.6618924
vn 0.001083761 0.570056 -0.7615578
vn -0.2214756 0.975166 7.604456E-09
vn 0.22828 0.9735955 -3.135235E-08
vn 0.2760533 -0.9611424 0
vn 0.1366364 -0.9805692 -0.0002164876
vn -0.002780555 -0.9999961 -0.0004329753
vn 0.09859843 0.9951273 0
vn 0.05070626 0.9975615 0.0004278437
vn 0.002814088 0.9999956 0.0008556875
vn -0.04995788 -0.9976332 -0.000397753
vn -0.09714248 -0.9952702 -0.0007955059
vn 0.8501061 0.5266115 0
vn 0.4741332 0.7607634 0.01127157
vn 0.09816029 0.9949153 0.02254313
vn 0.00283111 0.999996 0
vn -0.06919726 0.005245686 0.01529663
vn -0.1412256 -0.9895046 0.03059326
vn 0.8903341 0 0.4553079
vn -0.02443466 -2.936504E-05 0.05597325
vn -0.9392034 -5.873008E-05 -0.3433614
vn -0.09713011 -0.9952717 0
vn -0.445972 -0.7877779 -0.08879923
vn -0.7948139 -0.5802841 -0.1775985
vn 0.216072 0 0.9763774
vn -0.0239697 -0.0004632289 0.9704483
vn -0.2640114 -0.0009264578 0.9645191
vn 0.9352605 0 0.3539601
vn 0.4775807 0.002498784 -0.3229147
vn 0.01990084 0.004997568 -0.9997895
vn 0.8559621 0.5170386 0
vn 0.5386895 -0.2290701 -0.0004838899
vn 0.2214168 -0.9751788 -0.0009677798
vn -0.4261987 -0.7637172 -0.003389546
vn -0.8495663 -0.5274384 -0.006779092
vn -0.2624952 0 0.9649333
vn -0.2918673 -0.0004664538 0.9559655
vn -0.3212394 -0.0009329077 0.9469976
vn 0.8436853 0.005750696 0.2444913
vn 0.8847815 0.05217209 0.3017989
vn 0.9960424 -0.08887951 0
vn 0.8969007 0.03478139 0.07145464
vn 0.9188628 -0.04415279 0.04329196
vn 0.9990529 0.04351322 0
vn 0.9177247 -0.06622919 0.2595549
vn -0.08974398 -0.09636667 0.9823479
vn -0.179488 -0.1927333 0.9646958
vn -0.1527615 0.03309232 0.9866872
vn -0.1829174 0 0.9831283
vn -0.1226056 0.06618464 0.9902462
vn -0.06150079 0.06585837 0.9918469
vn 0 0.1317167 0.9912874
vn -0.1230016 0 0.9924065
vn 0.1368463 -0.09119096 0.9650731
vn 0.01284931 -0.2530881 0.9673579
vn 0.2608433 0.07070623 0.9627883
vn 0.03418855 -0.09280483 0.9711244
vn 0.1825256 0.06541625 0.9810225
vn -0.1141485 -0.2510259 0.9612263
vn -0.1123767 0.1308275 0.9850156
vn -0.05618835 0.1884739 0.9771274
vn 0 0.2461204 0.9692392
vn 0.1196384 0.1109269 0.9703618
vn 0 -0.01790467 0.9998397
vn 0.2392769 0.2397584 0.9408839
vn 0.004241817 0.004554844 0.9999613
vn 0.008483633 0.009109688 0.9999225
vn 0 -0.195915 0.9806209
vn 0.09145872 -0.09795748 0.9818746
vn 0.1829174 0 0.9831283
vn 0.007832528 -0.0006772667 0.9999686
vn 0.007175573 -0.001354533 0.9999734
vn 0.008489484 0 0.999964
vn -0.8328219 -0.06074476 -0.1574872
vn -0.8987453 -0.1163801 0.2783125
vn -0.8648088 -0.07583443 -0.01580534
vn -0.8820379 0.1257284 -0.3421958
vn -0.9451389 0.3266592 0.00249915
vn -0.924589 0.1859641 -0.2112732
vn 0.005818198 0.9999765 -0.003625709
vn 0.0008480622 0.9999168 0.006730315
vn 0.0003648376 0.999998 0.001098421
vn -0.001091337 0.9999247 0.007938885
vn 0.000724837 0.9998782 0.008447841
vn 0.04471849 0.04142423 0.9962704
vn 0.08943699 0.08284846 0.9925408
vn 0.06542486 0.1427029 0.9835465
vn 0.1308497 0.2022239 0.9705585
vn 0 0.08318181 0.9965344
vn 0 -0.1934688 0.9811065
vn 0.1041056 -0.09673441 0.9795952
vn 0.2082112 0 0.9780839
vn 0.08388063 -0.07785698 0.9868149
vn 0 -0.155714 0.9878022
vn 0.1677613 0 0.9858276
vn 0.1675519 -0.04994028 0.9845976
vn 0.1503536 -0.06619069 0.986129
vn 0.1331554 -0.08244109 0.9876604
vn 0.04487276 -0.0415909 0.9962496
vn 0.08974551 0 0.9959647
vn 0 -0.08318181 0.9965344
vn -0.08288575 -0.07677977 0.9870676
vn -0.1657715 -0.1535595 0.9741352
vn 0 0.06784118 0.9976962
vn -0.08599019 -0.06445375 0.9814744
vn -0.1719804 -0.1967487 0.9652526
vn -0.09436379 -0.1235967 0.9825101
vn -0.0242388 -0.05064152 0.9984227
vn -0.1644888 -0.1965519 0.9665976
vn -0.01865101 0.1872901 0.9818046
vn -0.03730202 0.1706025 0.9846336
vn 0 0.2039777 0.9789755
vn 0.07539771 -0.1642231 0.9121906
vn -0.1131246 -0.4773522 0.8713999
vn 0.26392 0.148906 0.9529812
vn 0.2527218 0.1930037 0.9480935
vn 0.1484209 0.09650186 0.9735599
vn 0.04411996 0 0.9990263
vn -0.1022216 -0.09469122 0.9801919
vn -0.2044433 -0.1893824 0.9603839
vn 0.162914 0.7222499 0.6721712
vn 0.1782272 0.7738419 0.6012275
vn 0.1935404 0.8254339 0.5302838
vn 0 -0.7071089 0.7071047
vn -5.444028E-06 -0.7072906 0.7069228
vn -0.1817697 0.8324242 0.5234784
vn -0.1728546 0.7771283 0.5979243
vn -0.1639396 0.7218325 0.6723701
vn 0.6718007 0.740732 0
vn -0.6682789 0.7439108 2.294563E-08
vn -0.4125057 -0.8122057 0.4125057
vn 0.1247368 0.8639003 0.4879724
vn 0.4082464 -0.8164983 0.4082467
vn -0.1228832 0.8649365 0.4866051

usemtl DesertSandBricks_height
f 48/139/9 47/134/9 95/214/9
f 48/139/9 95/214/9 94/213/9
f 49/92/9 48/139/9 94/213/9
f 96/216/9 49/92/9 94/213/9
f 49/92/9 96/216/9 50/215/9
f 99/219/62 98/218/61 51/220/63
f 97/217/60 51/220/63 98/218/61
f 97/217/60 52/221/64 51/220/63
f 97/217/60 101/223/66 52/221/64
f 101/223/66 100/222/65 52/221/64
f 104/228/4 12/13/4 50/70/4
f 104/228/4 103/227/4 12/13/4
f 12/13/4 103/227/4 51/224/4
f 51/224/4 103/227/4 102/226/4
f 102/226/4 99/225/4 51/224/4
f 52/232/5 100/231/5 106/230/5
f 106/230/5 105/229/5 52/232/5
f 52/232/5 105/229/5 10/19/5
f 10/19/5 105/229/5 107/233/5
f 47/63/5 10/19/5 107/233/5
f 117/259/9 54/135/9 53/143/9
f 118/260/9 117/259/9 53/143/9
f 53/143/9 56/87/9 118/260/9
f 56/87/9 119/261/9 118/260/9
f 56/87/9 55/262/9 119/261/9
f 59/266/97 122/265/1 121/264/96
f 59/266/97 121/264/96 120/263/95
f 60/267/98 59/266/97 120/263/95
f 124/269/100 60/267/98 120/263/95
f 60/267/98 124/269/100 123/268/99
f 39/54/5 54/74/5 126/271/5
f 126/271/5 125/270/5 39/54/5
f 39/54/5 125/270/5 59/272/5
f 59/272/5 125/270/5 127/274/5
f 122/273/5 59/272/5 127/274/5
f 130/281/105 60/276/102 123/275/101
f 130/281/105 129/280/104 60/276/102
f 60/276/102 129/280/104 40/277/103
f 40/277/103 129/280/104 128/279/4
f 128/279/4 55/278/4 40/277/103
f 69/101/5 61/320/5 62/319/5
f 69/101/5 43/44/5 61/320/5
f 69/101/5 26/40/5 43/44/5
f 70/102/5 65/328/5 66/327/5
f 4/18/5 70/102/5 66/327/5
f 11/17/5 70/102/5 4/18/5
f 4/4/1 2/2/1 1/1/1
f 1/1/1 3/3/1 4/4/1
f 8/8/2 6/6/2 5/5/2
f 5/5/2 7/7/2 8/8/2
f 12/12/3 10/10/3 9/9/3
f 9/9/3 11/11/3 12/12/3
f 4/16/4 3/14/4 12/13/4
f 12/13/4 11/15/4 4/16/4
f 1/20/5 2/18/5 9/17/5
f 9/17/5 10/19/5 1/20/5
f 16/22/5 14/17/5 13/18/5
f 13/18/5 15/21/5 16/22/5
f 5/26/1 2/24/1 4/23/1
f 4/23/1 7/25/1 5/26/1
f 20/30/6 18/28/6 17/27/6
f 17/27/6 19/29/6 20/30/6
f 26/38/9 11/36/9 9/35/9
f 9/35/9 25/37/9 26/38/9
f 28/40/5 14/17/5 16/22/5
f 16/22/5 27/39/5 28/40/5
f 30/42/2 6/6/2 8/8/2
f 8/8/2 29/41/2 30/42/2
f 32/44/5 28/40/5 27/39/5
f 27/39/5 31/43/5 32/44/5
f 38/50/2 30/42/2 29/41/2
f 29/41/2 37/49/2 38/50/2
f 40/52/1 26/23/1 25/24/1
f 25/24/1 39/51/1 40/52/1
f 39/54/5 25/40/5 41/44/5
f 41/44/5 42/53/5 39/54/5
f 44/58/4 43/56/4 26/55/4
f 26/55/4 40/57/4 44/58/4
f 46/62/12 17/60/12 18/59/12
f 18/59/12 45/61/12 46/62/12
f 48/64/5 1/20/5 10/19/5
f 10/19/5 47/63/5 48/64/5
f 49/68/1 3/66/1 1/65/1
f 1/65/1 48/67/1 49/68/1
f 50/70/4 12/13/4 3/14/4
f 3/14/4 49/69/4 50/70/4
f 52/72/2 10/6/2 12/8/2
f 12/8/2 51/71/2 52/72/2
f 54/74/5 39/54/5 42/53/5
f 42/53/5 53/73/5 54/74/5
f 56/76/4 44/58/4 40/57/4
f 40/57/4 55/75/4 56/76/4
f 58/80/13 46/78/13 45/77/13
f 45/77/13 57/79/13 58/80/13
f 60/82/15 40/41/14 39/42/2
f 39/42/2 59/81/14 60/82/15
f 15/132/2 5/5/2 6/6/2
f 6/6/2 16/131/2 15/132/2
f 16/131/2 6/6/2 30/42/2
f 30/42/2 27/133/2 16/131/2
f 89/137/9 87/135/9 86/134/9
f 86/134/9 88/136/9 89/137/9
f 27/133/2 30/42/2 38/50/2
f 38/50/2 31/138/2 27/133/2
f 88/136/9 86/134/9 90/139/9
f 90/139/9 91/140/9 88/136/9
f 13/142/1 2/24/1 5/26/1
f 5/26/1 15/141/1 13/142/1
f 93/144/9 92/143/9 87/135/9
f 87/135/9 89/137/9 93/144/9
f 31/148/3 38/146/3 41/145/3
f 41/145/3 32/147/3 31/148/3
f 91/154/5 13/18/5 14/17/5
f 14/17/5 88/153/5 91/154/5
f 93/156/3 32/147/3 41/145/3
f 41/145/3 92/155/3 93/156/3
f 88/153/5 14/17/5 28/40/5
f 28/40/5 89/157/5 88/153/5
f 92/159/4 41/56/4 25/55/4
f 25/55/4 87/158/4 92/159/4
f 89/157/5 28/40/5 32/44/5
f 32/44/5 93/160/5 89/157/5
f 86/162/4 9/15/4 2/16/4
f 2/16/4 90/161/4 86/162/4
f 90/164/1 2/24/1 13/142/1
f 13/142/1 91/163/1 90/164/1
f 17/168/28 41/166/27 38/165/26
f 38/165/26 19/167/27 17/168/28
f 18/172/31 43/170/30 44/169/29
f 44/169/29 45/171/30 18/172/31
f 46/176/33 42/174/32 41/173/28
f 41/173/28 17/175/32 46/176/33
f 45/180/36 44/178/35 56/177/34
f 56/177/34 57/179/35 45/180/36
f 20/184/39 37/182/38 43/181/37
f 43/181/37 18/183/38 20/184/39
f 19/188/42 38/186/41 37/185/40
f 37/185/40 20/187/41 19/188/42
f 58/192/45 53/190/44 42/189/43
f 42/189/43 46/191/44 58/192/45
f 57/196/48 56/194/47 53/193/46
f 53/193/46 58/195/47 57/196/48
f 18/200/51 43/198/50 35/197/49
f 35/197/49 71/199/50 18/200/51
f 71/204/54 35/202/53 63/201/52
f 63/201/52 72/203/53 71/204/54
f 73/208/56 61/206/55 43/205/28
f 43/205/28 18/207/55 73/208/56
f 72/212/59 63/210/58 61/209/57
f 61/209/57 73/211/58 72/212/59
f 108/236/9 107/235/9 105/234/9
f 105/234/9 109/237/9 108/236/9
f 95/239/9 47/238/9 107/235/9
f 107/235/9 108/236/9 95/239/9
f 94/240/9 95/239/9 108/236/9
f 108/236/9 110/241/9 94/240/9
f 110/241/67 108/236/9 109/237/67
f 109/237/67 111/242/68 110/241/67
f 112/243/69 110/241/70 111/242/69
f 111/242/69 113/244/71 112/243/69
f 96/245/9 94/240/9 110/241/9
f 110/241/9 112/243/9 96/245/9
f 50/246/9 96/245/9 112/243/9
f 112/243/9 104/247/9 50/246/9
f 104/247/72 112/243/74 113/244/72
f 113/244/72 103/248/73 104/247/72
f 115/251/75 114/250/76 97/249/75
f 97/249/75 98/252/77 115/251/75
f 113/244/78 111/242/79 114/250/78
f 114/250/78 115/251/80 113/244/78
f 103/248/82 113/244/81 115/251/82
f 115/251/82 102/253/83 103/248/82
f 102/253/84 115/251/86 98/252/84
f 98/252/84 99/254/85 102/253/84
f 116/257/87 106/256/9 100/255/87
f 100/255/87 101/258/88 116/257/87
f 109/237/9 105/234/9 106/256/9
f 106/256/9 116/257/9 109/237/9
f 111/242/90 109/237/89 116/257/90
f 116/257/90 114/250/91 111/242/90
f 114/250/92 116/257/94 101/258/92
f 101/258/92 97/249/93 114/250/92
f 132/284/106 131/283/107 118/282/106
f 118/282/106 119/285/9 132/284/106
f 134/287/108 133/286/109 131/283/108
f 131/283/108 132/284/110 134/287/108
f 129/288/112 134/287/111 132/284/112
f 132/284/112 128/289/113 129/288/112
f 128/289/9 132/284/9 119/285/9
f 119/285/9 55/290/9 128/289/9
f 135/293/9 126/292/9 54/291/9
f 54/291/9 117/294/9 135/293/9
f 136/296/114 125/295/115 126/292/114
f 126/292/114 135/293/116 136/296/114
f 133/286/118 136/296/117 135/293/118
f 135/293/118 131/283/119 133/286/118
f 131/283/120 135/293/122 117/294/120
f 117/294/120 118/282/121 131/283/120
f 137/298/123 127/297/9 125/295/123
f 125/295/123 136/296/124 137/298/123
f 121/300/9 122/299/9 127/297/9
f 127/297/9 137/298/9 121/300/9
f 120/301/126 121/300/125 137/298/126
f 137/298/126 138/302/127 120/301/126
f 138/302/128 137/298/130 136/296/128
f 136/296/128 133/286/129 138/302/128
f 139/303/131 138/302/132 133/286/131
f 133/286/131 134/287/133 139/303/131
f 124/304/134 120/301/135 138/302/134
f 138/302/134 139/303/136 124/304/134
f 123/305/138 124/304/137 139/303/138
f 139/303/138 130/306/139 123/305/138
f 130/306/140 139/303/9 134/287/140
f 134/287/140 129/288/141 130/306/140

usemtl Floor
f 86/151/4 87/152/4 25/150/4 9/149/4

usemtl ceiling_A
f 70/341/154 76/342/154 65/343/154
f 70/102/5 11/17/5 26/40/5
f 26/40/5 69/101/5 70/102/5
f 76/313/145 70/311/145 69/312/145
f 69/312/145 75/314/146 76/313/145

usemtl AgedDarkWood
f 78/117/9 75/114/9 79/118/9
f 75/114/9 78/117/9 76/115/9
f 78/117/9 77/116/9 76/115/9
f 62/335/152 75/336/152 69/337/152
f 83/340/153 79/339/153 64/338/153
f 67/344/155 77/345/155 85/346/155
f 64/90/9 62/88/9 61/87/9
f 61/87/9 63/89/9 64/90/9
f 68/94/9 66/92/9 65/91/9
f 65/91/9 67/93/9 68/94/9
f 80/121/24 74/120/24 21/119/24
f 21/119/24 81/122/24 80/121/24
f 33/123/25 74/120/25 80/121/25
f 80/121/25 82/124/25 33/123/25
f 83/126/25 82/125/25 80/128/25
f 80/128/25 84/127/25 83/126/25
f 80/128/24 81/130/24 85/129/24
f 85/129/24 84/127/24 80/128/24
f 75/114/9 62/88/9 64/90/9
f 64/90/9 79/118/9 75/114/9
f 84/309/143 78/307/142 79/308/143
f 79/308/143 83/310/144 84/309/143
f 77/116/9 67/93/9 65/91/9
f 65/91/9 76/115/9 77/116/9
f 85/317/148 77/315/147 78/316/148
f 78/316/148 84/318/149 85/317/148

usemtl AgedDarkWood_URPShader
f 74/113/23 23/110/20 21/109/19
f 23/110/20 74/113/23 34/111/21
f 74/113/23 33/112/22 34/111/21
f 35/322/150 33/321/150 82/326/150
f 63/323/150 35/322/150 82/326/150
f 83/325/150 63/323/150 82/326/150
f 64/324/150 63/323/150 83/325/150
f 22/334/151 81/330/151 21/329/151
f 68/333/151 81/330/151 22/334/151
f 81/330/151 68/333/151 85/331/151
f 67/332/151 85/331/151 68/333/151
f 24/34/4 22/32/8 21/31/7
f 21/31/7 23/33/8 24/34/4
f 36/48/4 34/46/11 33/45/10
f 33/45/10 35/47/11 36/48/4
f 24/84/1 7/25/1 4/23/1
f 4/23/1 22/83/1 24/84/1
f 34/86/2 29/41/2 8/8/2
f 8/8/2 23/85/2 34/86/2
f 23/85/2 8/8/2 7/7/2
f 7/7/2 24/95/2 23/85/2
f 36/96/2 37/49/2 29/41/2
f 29/41/2 34/86/2 36/96/2
f 35/100/3 43/98/3 37/97/3
f 37/97/3 36/99/3 35/100/3
f 68/104/1 22/83/1 4/23/1
f 4/23/1 66/103/1 68/104/1
f 73/108/18 18/106/17 71/105/16
f 71/105/16 72/107/17 73/108/18

